<?xml version="1.0" standalone="no"?><!DOCTYPE svg PUBLIC "-//W3C//DTD SVG 1.1//EN" "http://www.w3.org/Graphics/SVG/1.1/DTD/svg11.dtd"><svg t="1713498250246" class="icon" viewBox="0 0 1024 1024" version="1.1" xmlns="http://www.w3.org/2000/svg" p-id="9562" xmlns:xlink="http://www.w3.org/1999/xlink" width="200" height="200"><path d="M377.856 727.04c0-194.56 157.696-352.256 352.256-352.256 31.744 0 63.488 4.096 93.184 12.288V77.824c0-40.96-33.792-74.752-74.752-74.752H80.896C39.936 3.072 6.144 36.864 6.144 77.824v780.288c0 40.96 33.792 74.752 74.752 74.752h362.496c-41.984-59.392-65.536-129.024-65.536-205.824zM192.512 151.552h445.44c10.24 0 19.456 4.096 26.624 11.264 7.168 7.168 11.264 16.384 11.264 26.624s-4.096 19.456-11.264 26.624c-7.168 7.168-16.384 11.264-26.624 11.264H192.512c-10.24 0-19.456-4.096-26.624-11.264-7.168-7.168-11.264-16.384-11.264-26.624s4.096-19.456 11.264-26.624c7.168-7.168 16.384-11.264 26.624-11.264z m0 223.232h148.48c20.48 0 36.864 16.384 36.864 36.864s-16.384 36.864-36.864 36.864H192.512c-20.48 0-36.864-16.384-36.864-36.864-1.024-20.48 15.36-36.864 36.864-36.864z m73.728 296.96h-74.752c-10.24 0-19.456-4.096-26.624-11.264-7.168-7.168-11.264-16.384-11.264-26.624s4.096-19.456 11.264-26.624c7.168-7.168 16.384-11.264 26.624-11.264H266.24c10.24 0 19.456 4.096 26.624 11.264 7.168 7.168 11.264 16.384 11.264 26.624s-4.096 19.456-11.264 26.624c-7.168 7.168-16.384 11.264-26.624 11.264z m0 0" p-id="9563" fill="#1296db"></path><path d="M738.304 447.488c-157.696 0-285.696 128-285.696 285.696 0 157.696 128 285.696 285.696 285.696S1024 890.88 1024 733.184c0-157.696-128-285.696-285.696-285.696z m164.864 288.768c0 14.336-11.264 25.6-25.6 25.6H599.04c-14.336 0-25.6-11.264-25.6-25.6v-6.144c0-14.336 11.264-25.6 25.6-25.6h277.504c14.336 0 25.6 11.264 25.6 25.6v6.144z" p-id="9564" fill="#1296db"></path></svg>