<?xml version="1.0" standalone="no"?><!DOCTYPE svg PUBLIC "-//W3C//DTD SVG 1.1//EN" "http://www.w3.org/Graphics/SVG/1.1/DTD/svg11.dtd"><svg t="1713497725868" class="icon" viewBox="0 0 1024 1024" version="1.1" xmlns="http://www.w3.org/2000/svg" p-id="1698" xmlns:xlink="http://www.w3.org/1999/xlink" width="200" height="200"><path d="M0 0m298.666667 0l426.666666 0q298.666667 0 298.666667 298.666667l0 426.666666q0 298.666667-298.666667 298.666667l-426.666666 0q-298.666667 0-298.666667-298.666667l0-426.666666q0-298.666667 298.666667-298.666667Z" fill="#FF9F00" p-id="1699"></path><path d="M511.957333 515.754667c-54.890667 0.106667-105.664-28.693333-133.12-75.52a149.290667 149.290667 0 0 1 0-151.381334c27.456-46.826667 78.229333-75.626667 133.12-75.52 84.757333 0 153.450667 67.690667 153.450667 151.210667 0 83.498667-68.693333 151.210667-153.450667 151.210667M768 759.082667c0 4.906667-4.053333 8.917333-9.045333 8.917333H265.024a9.109333 9.109333 0 0 1-7.082667-3.413333 8.832 8.832 0 0 1-1.706666-7.573334c4.586667-103.125333 72.469333-193.130667 171.370666-227.2l79.488 78.336a7.082667 7.082667 0 0 0 9.898667 0l79.402667-78.314666c98.901333 34.069333 166.784 124.053333 171.413333 227.2a10.453333 10.453333 0 0 1 0.192 2.048" fill="#FFFFFF" p-id="1700"></path></svg>