<?xml version="1.0" standalone="no"?><!DOCTYPE svg PUBLIC "-//W3C//DTD SVG 1.1//EN" "http://www.w3.org/Graphics/SVG/1.1/DTD/svg11.dtd"><svg t="1713498057275" class="icon" viewBox="0 0 1024 1024" version="1.1" xmlns="http://www.w3.org/2000/svg" p-id="3952" xmlns:xlink="http://www.w3.org/1999/xlink" width="200" height="200"><path d="M959.104 360.448v521.92c0 48.832-45.056 88.32-100.864 88.32H164.8c-55.744 0-100.8-39.488-100.8-88.32V360.448h895.104zM736 498.112a39.232 39.232 0 0 0-52.096 5.568l-215.68 247.68-107.776-123.648c-12.992-14.976-37.632-19.584-52.48-6.528-15.872 13.888-12.608 39.488-0.128 54.4l137.152 156.608a30.336 30.336 0 0 0 46.976 0l245.44-282.496c10.688-10.624 15.232-39.488-1.408-51.584zM246.976 136.832v65.984c0 25.088 23.296 45.568 52.16 45.568 28.8 0 52.096-20.48 52.096-45.568V136.832h320.64v65.984c0 25.088 23.232 45.568 52.096 45.568 28.864 0 52.096-20.48 52.096-45.568V136.832h82.688c55.808 0 100.864 39.488 100.864 88.32H960v90.176H64.384V225.152c0-48.832 45.056-88.32 100.864-88.32h81.728zM723.456 55.04c13.952 0 25.088 8.384 25.088 19.008v128.384c0 10.624-11.52 19.008-25.088 19.008-13.888 0-24.64-8.32-24.64-19.136V74.048c0-10.624 11.136-19.008 24.64-19.008z m-422.912 0c13.504 0 24.64 8.384 24.64 19.008v128.384c0 10.624-11.136 19.008-24.64 19.008-13.952 0-25.088-8.32-25.088-19.136V74.048c0-10.624 11.52-19.008 25.088-19.008z" fill="#FD3B03" p-id="3953"></path></svg>